<?xml version="1.0" encoding="utf-8"?>
<!-- Generator: Adobe Illustrator 15.0.0, SVG Export Plug-In . SVG Version: 6.00 Build 0)  -->
<!DOCTYPE svg PUBLIC "-//W3C//DTD SVG 1.1//EN" "http://www.w3.org/Graphics/SVG/1.1/DTD/svg11.dtd">
<svg version="1.1" id="Layer_1" xmlns="http://www.w3.org/2000/svg" xmlns:xlink="http://www.w3.org/1999/xlink" x="0px" y="0px"
	 width="210px" height="100px" viewBox="0 0 210 100" enable-background="new 0 0 210 100" xml:space="preserve">
<g>
	<path fill="#1A1A1A" d="M157.748,43.621c-1.467-1.366-2.934-2.1-4.4-2.2c-1.934,0.7-3.467,2.467-4.6,5.3
		c-0.134,0.3-0.317,0.768-0.55,1.4c-0.034,0.233-0.084,0.6-0.15,1.1c-0.4,2.434-0.6,3.917-0.6,4.45c0,2,0.817,3.483,2.45,4.449
		c0.767,0.4,1.45,0.601,2.05,0.601c0.5,0,1.066-0.1,1.7-0.3c0.633-0.2,1.233-0.383,1.8-0.55c0.4-0.1,0.783-0.167,1.15-0.2
		c3.2-2.233,4.8-4.882,4.8-7.95c0-0.733-0.1-1.5-0.3-2.3C159.498,45.454,158.38,44.188,157.748,43.621z"/>
	<path fill="#1A1A1A" d="M0,0v100h210V0H0z M46.403,34.222c-1,0-2.475-0.191-4.425-0.575c-1.95-0.383-3.425-0.575-4.425-0.575
		c-0.6,0-1.3,0.067-2.1,0.2c0.333,3.333,0.5,6.733,0.5,10.2c0,6.933-0.566,13.149-1.7,18.649c-1.167-0.4-1.75-2.133-1.75-5.2
		c0-1.933,0.225-4.825,0.675-8.674c0.45-3.851,0.675-6.741,0.675-8.675c0-1.1-0.067-2.116-0.2-3.05c0-0.033-0.184-0.783-0.55-2.25
		c-0.233-0.9-0.85-1.5-1.85-1.8c-0.834-0.267-1.75-0.417-2.75-0.45c-0.867,0-2.2-0.066-4-0.2c-1.5-0.232-2.434-0.816-2.8-1.75
		c-0.1-0.333-0.15-0.6-0.15-0.8c0-0.732,0.283-1.1,0.851-1.1c0.4,0,1.05,0.547,1.95,0.914c0.9,0.367,1.617,0.914,2.15,0.914
		c0.033,0,0.083,0,0.15,0c0.1-1,0.167-0.414,0.2-0.414s0.733-0.099,2.101,0.068c3.266,0.4,6.549,0.708,9.849,1.109
		c3.833,0.399,7.133,0.588,9.9,0.654c0.167,0.367,0.35,1.161,0.55,2.427C48.354,34.111,47.403,34.222,46.403,34.222z M72.602,58.621
		c-0.367,0.567-0.625,0.925-0.775,1.075c-0.15,0.15-0.508,0.409-1.075,0.775c-2.4,1.566-5.017,2.35-7.849,2.35
		c-1.534,0-2.734-0.167-3.601-0.5c-1.567-0.566-2.733-1.883-3.5-3.95c-0.534-1.766-1.05-3.532-1.55-5.3
		c0.266-4.066,0.75-7.216,1.45-9.449c1.066-3.366,2.85-5.833,5.35-7.4c4.833,0.868,8.616,3.05,11.35,6.55
		c0.7,0.868,1.2,1.634,1.5,2.3c0.7,1.467,1.05,3.267,1.05,5.399C74.952,53.504,74.168,56.221,72.602,58.621z M107.7,42.471
		c-1.667-0.833-3.517-1.25-5.55-1.25c-2.9,0-6.05,0.8-9.45,2.4c-0.333,0.167-0.833,0.434-1.5,0.8c-0.333,0.233-0.868,0.734-1.6,1.5
		c-2.833,3.1-4.25,6.399-4.25,9.899c0,1.334,0.25,2.667,0.75,4c0.264,0.197,0.396,0.494,0.399,0.887
		c0-0.004,0.001-0.001,0.001,0.014c0-0.005-0.001-0.009-0.001-0.014c-0.004,0.022-0.021,0.358-0.049,1.014l-0.65,0.6l-1.35-1.4
		c-0.034-0.1-1.05-4.433-3.05-13c-1.2-5.232-1.9-9.632-2.1-13.199c1.4,0.7,2.316,2.217,2.75,4.55c0.233,1.9,0.366,3.783,0.6,5.649
		c0.266,0.234,0.35,0.483,0.35,0.75c0-0.033,0,0.317,0,1.05c0,0.867,0.567,1.45,1.5,1.75c4.6-6.633,9.583-10.216,14.85-10.75
		c0.7-0.066,1.425-0.1,2.125-0.1c2.333,0,4.145,0.567,5.413,1.7c0.066,0.233,0.256,0.65,0.556,1.25c0.3,0.6,0.453,1.05,0.453,1.35
		C107.896,42.121,107.833,42.305,107.7,42.471z M136.198,34.222c-1,0-2.475-0.191-4.425-0.575c-1.95-0.383-3.425-0.575-4.425-0.575
		c-0.6,0-1.3,0.067-2.1,0.2c0.333,3.333,0.5,6.733,0.5,10.2c0,6.933-0.567,13.149-1.7,18.649c-1.167-0.4-1.75-2.133-1.75-5.2
		c0-1.933,0.226-4.825,0.675-8.674c0.45-3.851,0.674-6.741,0.674-8.675c0-1.1-0.067-2.116-0.199-3.05
		c0-0.033-0.184-0.783-0.551-2.25c-0.233-0.9-0.85-1.5-1.85-1.8c-0.833-0.267-1.75-0.417-2.75-0.45c-0.868,0-2.2-0.066-4-0.2
		c-1.5-0.232-2.434-0.816-2.8-1.75c-0.1-0.333-0.15-0.6-0.15-0.8c0-0.732,0.282-1.1,0.85-1.1c0.4,0,1.05,0.547,1.95,0.914
		c0.9,0.367,1.616,0.914,2.149,0.914c0.033,0,0.083,0,0.15,0c0.1-1,0.166-0.414,0.2-0.414c0.033,0,0.733-0.099,2.1,0.068
		c3.267,0.4,6.55,0.708,9.85,1.109c3.833,0.399,7.133,0.588,9.9,0.654c0.167,0.367,0.35,1.161,0.55,2.427
		C138.148,34.111,137.198,34.222,136.198,34.222z M162.397,58.621c-0.367,0.567-0.625,0.925-0.775,1.075
		c-0.15,0.15-0.508,0.409-1.075,0.775c-2.399,1.566-5.017,2.35-7.849,2.35c-1.534,0-2.734-0.167-3.6-0.5
		c-1.567-0.566-2.733-1.883-3.5-3.95c-0.533-1.766-1.05-3.532-1.55-5.3c0.267-4.066,0.75-7.216,1.45-9.449
		c1.066-3.366,2.85-5.833,5.35-7.4c4.833,0.868,8.616,3.05,11.35,6.55c0.7,0.868,1.2,1.634,1.5,2.3c0.7,1.467,1.05,3.267,1.05,5.399
		C164.747,53.504,163.964,56.221,162.397,58.621z M173.247,62h-0.101c-1.3-2-1.95-4.723-1.95-7.89c0-1.3,0.141-3.402,0.424-5.97
		c0.283-2.566,0.425-4.345,0.425-5.645c0-0.966-0.05-1.496-0.15-2.496c0.033,0,0.066,0,0.1,0c0.533,0,1.108-0.106,1.726,0.161
		c0.616,0.267,0.991,0.43,1.125,0.73c0.032,0.1,0.083,0.157,0.149,0.29l0.2,19.26C174.263,61.308,173.613,62,173.247,62z
		 M175.196,34.222c-0.5,0-1.15-0.417-1.949-1.25c-0.435-0.5-1.134-1.133-2.101-1.9c-0.8-1.066-1.2-2.05-1.2-2.949
		c0-0.467,0.101-0.9,0.3-1.3c3.8,2.467,5.866,4.717,6.2,6.75C176.013,34.005,175.597,34.222,175.196,34.222z"/>
	<path fill="#1A1A1A" d="M67.952,43.621c-1.468-1.366-2.934-2.1-4.4-2.2c-1.934,0.7-3.467,2.467-4.6,5.3
		c-0.134,0.3-0.317,0.768-0.55,1.4c-0.034,0.233-0.084,0.6-0.15,1.1c-0.399,2.434-0.6,3.917-0.6,4.45c0,2,0.816,3.483,2.45,4.449
		c0.766,0.4,1.45,0.601,2.05,0.601c0.5,0,1.066-0.1,1.699-0.3c0.633-0.2,1.233-0.383,1.8-0.55c0.4-0.1,0.783-0.167,1.15-0.2
		c3.2-2.233,4.8-4.882,4.8-7.95c0-0.733-0.1-1.5-0.3-2.3C69.702,45.454,68.584,44.188,67.952,43.621z"/>
</g>
</svg>
